# xmcd
#
# Track frame offsets: 
#        150
#        17950
#        33108
#        62013
#        76770
#        89945
#        108525
#        122165
#        136293
#        149075
#        163358
#        181968
#
# Disc length: 2598 seconds
#
# Revision: 6
# Processed by: cddbd v1.5.2PL0 Copyright (c) Steve Scherf et al.
# Submitted via: ExactAudioCopy v0.95b3
#
DISCID=ae0a240c
DTITLE=Various Artist - Soul Hits Of The '70s Didn't It Blow Your Mind, Vol. 
DTITLE=10
DYEAR=1991
DGENRE=Soul
TTITLE0=Timmy Thomas - Why Can't We Live Together
TTITLE1=Brighter Side Of Darkness - Love Jones
TTITLE2=The Chi-Lites - A Lonely Man
TTITLE3=Curtis Mayfield - Superfly
TTITLE4=Jerry Butler - One Night Affair
TTITLE5=War - The World Is A Ghetto
TTITLE6=Johnny Nash - Stir It Up
TTITLE7=Four Tops - Ain't No Woman (Like The One I've Got)
TTITLE8=First Choice - Armed And Extremely Dangerous
TTITLE9=The Independents - Leaving Me
TTITLE10=Sylvia - Pillow Talk
TTITLE11=New York City - I'm Doin' Fine Now
EXTD=YEAR: 1991
EXTT0=
EXTT1=
EXTT2=
EXTT3=
EXTT4=
EXTT5=
EXTT6=
EXTT7=
EXTT8=
EXTT9=
EXTT10=
EXTT11=
PLAYORDER=
